<?xml version="1.0" standalone="no"?>
<!DOCTYPE svg PUBLIC "-//W3C//DTD SVG 20010904//EN"
 "http://www.w3.org/TR/2001/REC-SVG-20010904/DTD/svg10.dtd">
<svg version="1.0" xmlns="http://www.w3.org/2000/svg"
 width="740.000000pt" height="740.000000pt" viewBox="0 0 740.000000 740.000000"
 preserveAspectRatio="xMidYMid meet">
<metadata>
Created by potrace 1.11, written by Peter Selinger 2001-2013
</metadata>
<g transform="translate(0.000000,740.000000) scale(0.100000,-0.100000)"
fill="#000000" stroke="none">
<path d="M6424 6934 l-431 -434 -80 63 c-231 182 -556 373 -828 487 -128 53
-388 141 -402 136 -7 -3 -13 -2 -13 3 0 4 -26 14 -57 21 -32 8 -62 15 -68 16
-95 25 -207 45 -221 40 -8 -3 -12 -2 -9 3 3 5 -21 12 -52 16 -32 3 -86 10
-121 16 -35 5 -106 12 -159 14 -52 2 -98 6 -101 9 -3 3 -12 0 -20 -7 -13 -9
-14 -9 -8 1 5 8 1 12 -11 12 -11 0 -25 -6 -32 -12 -9 -9 -12 -9 -7 -1 9 16
-162 17 -183 0 -12 -9 -13 -9 -7 1 5 8 1 12 -11 12 -11 0 -25 -6 -32 -12 -10
-9 -12 -9 -7 -1 4 8 -1 11 -14 10 -11 -1 -20 -4 -20 -7 0 -4 -7 -7 -15 -7 -8
0 -15 4 -15 9 0 5 -3 7 -7 5 -5 -3 -46 -8 -93 -12 -47 -3 -92 -8 -100 -10 -8
-2 -42 -7 -75 -10 -33 -4 -69 -8 -80 -10 -11 -1 -28 -3 -38 -4 -10 0 -15 -5
-12 -11 3 -5 0 -7 -8 -4 -18 7 -198 -25 -193 -35 2 -3 -18 -7 -46 -8 -27 -1
-56 -7 -64 -14 -8 -6 -14 -8 -14 -4 0 4 -6 2 -14 -4 -8 -6 -18 -11 -22 -10
-20 3 -35 -2 -30 -10 3 -4 -6 -6 -19 -3 -15 2 -25 0 -25 -7 0 -7 -4 -10 -8 -7
-11 7 -82 -13 -82 -22 0 -4 -12 -8 -27 -9 -15 0 -29 -6 -31 -12 -2 -6 -8 -9
-12 -6 -10 6 -207 -71 -229 -89 -8 -6 -15 -9 -15 -7 -2 9 -201 -88 -341 -167
-125 -71 -359 -230 -460 -313 -159 -131 -255 -221 -248 -233 3 -6 2 -8 -2 -3
-11 10 -96 -73 -88 -86 3 -6 2 -7 -4 -4 -9 6 -87 -74 -159 -163 -16 -19 -31
-37 -34 -40 -3 -3 -21 -25 -39 -50 -19 -25 -39 -49 -45 -55 -16 -14 -66 -90
-66 -99 0 -4 -10 -17 -23 -29 -20 -19 -37 -44 -82 -118 -96 -160 -129 -217
-163 -284 -72 -142 -134 -279 -136 -302 0 -11 -4 -19 -7 -17 -6 3 -33 -70 -34
-91 0 -5 -3 -12 -6 -15 -12 -10 -48 -133 -42 -143 3 -5 1 -7 -4 -4 -6 4 -13
-7 -17 -26 -8 -41 -10 -50 -19 -63 -4 -7 -8 -28 -9 -48 -2 -20 -6 -36 -9 -36
-4 0 -10 -17 -14 -37 -4 -21 -9 -49 -12 -63 -3 -14 -6 -34 -7 -45 0 -11 -5
-23 -9 -26 -4 -3 -9 -31 -10 -61 -1 -31 -6 -53 -11 -51 -5 3 -7 -8 -4 -25 2
-18 0 -28 -5 -25 -5 3 -8 -11 -5 -35 2 -22 0 -39 -3 -36 -9 5 -22 -143 -14
-156 3 -5 2 -10 -2 -10 -11 0 -11 5 -18 -267 -4 -149 -2 -239 4 -252 6 -10 7
-21 4 -25 -11 -10 -3 -89 10 -105 9 -10 9 -15 1 -18 -7 -2 -8 -20 -3 -53 4
-27 11 -80 14 -117 4 -37 11 -70 16 -71 5 -2 7 -8 4 -13 -9 -13 37 -239 47
-233 4 3 5 -2 2 -10 -5 -12 16 -108 33 -156 4 -8 7 -21 9 -27 4 -22 44 -147
53 -168 5 -11 22 -55 36 -97 15 -43 32 -78 37 -78 5 0 7 -4 4 -9 -12 -18 128
-303 242 -493 65 -109 194 -299 226 -334 6 -7 20 -24 31 -40 11 -15 28 -36 37
-46 17 -17 -3 -39 -432 -468 -248 -248 -450 -455 -450 -461 0 -10 153 -169
163 -169 3 0 75 -70 160 -156 l155 -156 450 452 c316 317 454 450 464 444 7
-4 42 -31 78 -59 36 -28 76 -58 90 -68 62 -44 279 -187 284 -187 2 0 37 -19
78 -43 176 -104 459 -226 674 -291 49 -15 109 -33 134 -41 56 -17 310 -72 368
-79 23 -3 61 -9 85 -12 158 -22 266 -29 487 -29 195 0 368 8 430 20 13 2 44 7
69 10 25 3 60 8 76 10 156 28 204 37 230 45 17 5 41 11 55 14 14 2 50 11 80
20 30 8 73 20 95 26 22 6 49 15 60 20 11 5 38 14 60 21 47 14 238 85 263 98 9
5 67 32 127 61 300 141 608 346 854 568 689 620 1110 1466 1188 2382 15 177 8
603 -11 720 -3 14 -7 48 -11 75 -5 44 -10 74 -31 190 -3 17 -9 46 -14 65 -5
19 -11 49 -14 65 -19 108 -90 333 -163 520 -118 299 -278 583 -469 835 -44 58
-83 110 -87 117 -5 8 146 166 427 447 l435 435 -152 154 c-84 84 -189 193
-234 240 -46 48 -89 87 -95 86 -7 -1 -207 -196 -444 -435z"/>
</g>
</svg>
